<svg width="200" height="200" viewBox="0 0 200 200" fill="none" xmlns="http://www.w3.org/2000/svg">
  <defs>
    <linearGradient id="leaf" x1="0" y1="0" x2="1" y2="1">
      <stop offset="0%" stop-color="#C7A45D"/>
      <stop offset="100%" stop-color="#E8D5A3"/>
    </linearGradient>
  </defs>
  <!-- Ornement algérien style arabesque -->
  <path d="M100 10 Q130 30 140 70 Q150 110 130 150 Q110 180 100 190"
        stroke="url(#leaf)" stroke-width="0.6" fill="none" opacity="0.3"/>
  <path d="M100 10 Q70 30 60 70 Q50 110 70 150 Q90 180 100 190"
        stroke="url(#leaf)" stroke-width="0.6" fill="none" opacity="0.3"/>
  <path d="M100 30 Q120 45 125 70 Q130 95 115 120 Q105 140 100 150"
        stroke="url(#leaf)" stroke-width="0.4" fill="none" opacity="0.2"/>
  <path d="M100 30 Q80 45 75 70 Q70 95 85 120 Q95 140 100 150"
        stroke="url(#leaf)" stroke-width="0.4" fill="none" opacity="0.2"/>
  <circle cx="100" cy="100" r="45" stroke="url(#leaf)" stroke-width="0.3" fill="none" opacity="0.15"/>
  <circle cx="100" cy="100" r="30" stroke="url(#leaf)" stroke-width="0.2" fill="none" opacity="0.1"/>
  <circle cx="100" cy="100" r="6" fill="url(#leaf)" opacity="0.2"/>
  <!-- Diamant central -->
  <rect x="96" y="96" width="8" height="8" rx="1" fill="url(#leaf)" opacity="0.15" transform="rotate(45 100 100)"/>
</svg>
